<svg width="16" height="16" viewBox="0 0 16 16" fill="none" xmlns="http://www.w3.org/2000/svg">
<path d="M12.275 10.5605C11.7509 10.0373 11.1058 10.0373 10.5816 10.5605C10.1784 10.963 9.7752 11.3655 9.372 11.768C9.25104 11.8887 9.1704 11.8887 9.04944 11.8082C8.80752 11.6875 8.52528 11.5667 8.28336 11.4057C7.11409 10.6813 6.14641 9.75557 5.29969 8.70911C4.85617 8.18589 4.49329 7.62241 4.21105 6.97844C4.17073 6.85769 4.17073 6.7772 4.25137 6.65645C4.65457 6.25397 5.05777 5.89174 5.42065 5.48925C5.98513 4.92578 5.98513 4.2818 5.42065 3.75858C5.09809 3.43659 4.81585 3.15485 4.49329 2.83287C4.17073 2.51088 3.84817 2.18889 3.52561 1.86691C3.00145 1.34368 2.35634 1.34368 1.83218 1.86691C1.42898 2.26939 1.02578 2.67187 0.62258 3.07436C0.259701 3.35609 0.0581015 3.79883 0.0177816 4.32205C-0.0628583 5.16727 0.138741 5.93198 0.461301 6.6967C1.0661 8.26638 1.95314 9.67507 3.04177 11.0033C4.53361 12.7339 6.26737 14.1426 8.32368 15.1488C9.25104 15.5916 10.2187 15.9538 11.267 15.9941C11.9928 16.0343 12.5976 15.8733 13.1218 15.3098C13.4443 14.9476 13.8475 14.5854 14.2104 14.2231C14.7345 13.6999 14.7345 13.0157 14.2104 12.4925C13.5653 11.8082 12.9202 11.1643 12.275 10.5605Z" fill="#34A853"/>
<path d="M12.2347 7.78341C12.5976 7.70292 12.8798 7.34068 12.7589 6.97845C12.4766 6.13324 12.0331 5.32827 11.388 4.6843C10.7026 4.00008 9.85585 3.5171 8.92849 3.23536C8.56561 3.15486 8.20274 3.39635 8.16242 3.75859C8.1221 4.08057 8.32369 4.36231 8.64625 4.44281C9.33169 4.64405 9.97681 5.00628 10.5413 5.48926C10.5816 5.52951 10.5816 5.52951 10.6219 5.56976C11.0654 6.05274 11.388 6.65646 11.5896 7.30044C11.6299 7.66267 11.9122 7.82366 12.2347 7.78341Z" fill="#34A853"/>
<path d="M13.5653 2.5109C12.3154 1.26321 10.7832 0.417994 9.00912 0.0155112C8.64624 -0.0649854 8.28336 0.176504 8.24304 0.538739C8.20272 0.860725 8.40432 1.18271 8.72688 1.22296C10.2187 1.54495 11.5896 2.26941 12.6782 3.39637C13.7266 4.44282 14.412 5.73077 14.7749 7.09921C14.8555 7.42119 15.1781 7.62244 15.4603 7.54194C15.8232 7.50169 16.0651 7.13946 15.9845 6.77722C15.6216 5.16729 14.7749 3.6781 13.5653 2.5109Z" fill="#34A853"/>
</svg>
