<?xml version="1.0" encoding="utf-8"?>
<!-- Generator: Adobe Illustrator 22.0.0, SVG Export Plug-In . SVG Version: 6.00 Build 0)  -->
<svg version="1.1" id="Слой_1" xmlns="http://www.w3.org/2000/svg" xmlns:xlink="http://www.w3.org/1999/xlink" x="0px" y="0px"
	 viewBox="0 0 214.6 54.9" style="enable-background:new 0 0 214.6 54.9;" xml:space="preserve">
<style type="text/css">
	.st0{fill:#007BC3;}
	.st1{fill:#EE3829;}
</style>
<g>
	<g>
		<path class="st0" d="M54.9,32V19.3L33.6,32H54.9z"/>
		<path class="st1" d="M48.1,0H9.9C4.4,0.1,0,4.5,0,10v4.8h23.2C23.7,14.5,38.7,5.6,48.1,0z M24.4,18.5c0,0,25.6-15.4,30.5-18.3
			v15.3C52.2,17,27.7,31.5,27,32H0V18.5L24.4,18.5z M0,40.6c0,5.5,4.5,10,10,10h34.8c5.5,0,10-4.5,10-10v-5H0V40.6z"/>
		<path class="st0" d="M114.1,32h18.6v-5.5h-12.3v-8h11.2v-5.1h-11.2v-7h12.3V0.9h-18.6V32z M105.2,19.2l0.1,5.5h-0.1l-1.6-4.2
			L92.8,0.9h-8.2V32h6.3V13.7l-0.1-5.5h0.1l1.6,3.5L103.3,32h8.2V0.9h-6.3V19.2z M63,32h18.6v-5.5H69.3v-8h11.2v-5.1H69.3v-7h12.3
			V0.9H63V32z M172.6,19.1h6.4v7.4c-1.4,0.5-2.6,0.6-4.2,0.6c-6.1,0-10.1-4-10.1-10.7c0-6.8,4.1-10.9,10.4-10.9
			c2.5,0,5.7,0.4,8.9,1.8l0.4-5.6c-3.2-1.1-5.9-1.3-9.1-1.3c-10.4,0-17.2,5.6-17.2,15.9c0,10.1,6.6,15.9,16.4,15.9
			c4.7,0,9.4-1.3,10.9-1.7V14.2h-12.7L172.6,19.1L172.6,19.1z M151.1,16.7c1.5,0.4,2.5,1.5,3.3,3.3l5.1,12h-7.1l-4-9.9
			c-0.8-1.9-1.9-2.9-4-2.9H142V32h-6.3V0.9h11c8.3,0,10.5,4.3,10.5,8.5C157.1,14.5,153.3,16,151.1,16.7L151.1,16.7L151.1,16.7z
			 M145.3,14.3c4,0,5.3-2.5,5.3-4.3c0-1-0.3-4.2-5.3-4.2h-3.4v8.5H145.3z M207.9,0.9l-6.4,10.9l-1.1,2.1h-0.1l-1-2.1l-6.4-10.9h-7.3
			L197,19.3V32h6.3V19.4l11.2-18.5H207.9z"/>
		<path class="st1" d="M197.7,44.6c-0.9,0.6-1.2,1.7-1,2.6c0.1,0.7,0.6,1.2,1.3,1.2c0.9,0,1.7-0.6,1.7-1.8v-3.3L197.7,44.6z
			 M193.7,40.9c-0.2-2.9,1.9-4.5,4.6-4.5c2.3,0,4.2,0.8,4.6,2.7c0,0.2,0.1,0.5,0.1,0.8v8.5c0,0.5,0,0.9,0.1,1.3
			c0,0.3,0.2,0.5,0.3,0.7h-3.2c-0.1-0.1-0.1-0.4-0.2-0.5c0-0.2-0.1-0.6-0.1-0.8c-0.6,1-1.3,1.7-3,1.7c-1.7,0-3-0.8-3.4-2.6
			c-0.6-2.9,0.7-4.6,3.3-5.7c2.2-0.9,3.1-1.5,2.8-2.7c-0.1-0.5-0.5-0.8-1.4-0.8c-0.9,0-1.7,0.5-1.6,2H193.7z M191.1,36.7v13.6H188
			V39.1h-2.5l0,5.5c0,4.8-1.3,6-3.2,6c-0.7,0-1.1-0.1-1.8-0.2v-2.2c0.3,0,0.5,0.1,0.7,0.1c1.2,0,1.3-0.5,1.3-6.3v-5.2L191.1,36.7
			L191.1,36.7z M178.9,36.7v13.6h-3.1V39.1h-2.9v11.2h-3.1V36.7H178.9z M164.4,41.6v-1.3c0-0.1,0-0.3,0-0.4
			c-0.1-0.7-0.7-1.1-1.6-1.1c-1,0-1.6,0.5-1.6,1.5v1.3H164.4z M161.1,43.9v3c0,0.1,0,0.3,0,0.4c0.1,0.7,0.7,1.1,1.6,1.1
			c1,0,1.6-0.6,1.6-1.5v-0.8h3.1c0.1,3.4-2,4.7-4.7,4.7c-2.3,0-4.1-0.9-4.6-3.1c-0.1-0.4-0.1-0.8-0.1-1.3l0-5.7c0-3.1,2-4.3,4.7-4.3
			c2.3,0,4.1,0.9,4.6,3.1c0.1,0.4,0.1,0.8,0.1,1.3v3.1H161.1z M156.6,36.7v2.4h-3.1v11.2h-3.1V39.1h-3.2v-2.4H156.6z M136.7,39.1
			h-1.2c-1.1,0-2,0.9-1.6,2.5c0.2,0.8,0.7,1.3,1.5,1.3h1.3V39.1z M135.5,45.2l-2,5.2h-3.3l2.5-5.7c-1-0.6-1.7-1.4-1.9-2.6
			c-0.7-3.5,1.9-5.3,4-5.3h5v13.6h-3.1v-5.2H135.5z M121.9,36.7v8.1h0l3.3-8.1h3v13.6h-3v-8h0l-3.2,8h-3V36.7H121.9z M117.3,36.7
			v2.4h-4.9v11.2h-3.1V36.7H117.3z M101.2,40.5v6.1c0,0.1,0,0.3,0,0.4c0.2,0.8,0.8,1.2,1.5,1.2c0.8,0,1.5-0.5,1.5-1.6v-6.2
			c0-0.1,0-0.3,0-0.5c-0.2-0.7-0.8-1.1-1.4-1.1C102,38.9,101.2,39.4,101.2,40.5z M101.2,36.7l0,1.5h0c0.5-1.3,1.5-1.9,2.6-1.9
			c1.6,0,3,0.8,3.4,2.7c0.1,0.4,0.1,0.8,0.1,1.2v6.7c0,2.6-1.7,3.8-3.6,3.8c-1.2,0-2.1-0.6-2.6-1.9v6h-3.1V36.7H101.2z M92.3,41.6
			v-1.3c0-0.1,0-0.3,0-0.4c-0.1-0.7-0.7-1.1-1.6-1.1c-1,0-1.6,0.5-1.6,1.5v1.3H92.3z M89,43.9v3c0,0.1,0,0.3,0,0.4
			c0.1,0.7,0.7,1.1,1.6,1.1c1,0,1.6-0.6,1.6-1.5v-0.8h3.1c0.1,3.4-2,4.7-4.7,4.7c-2.3,0-4.1-0.9-4.6-3.1c-0.1-0.4-0.1-0.8-0.1-1.3
			l0-5.7c0-3.1,2-4.3,4.7-4.3c2.3,0,4.1,0.9,4.6,3.1c0.1,0.4,0.1,0.8,0.1,1.3v3.2L89,43.9L89,43.9z M77.6,41.9h2.9v-5.2h3.1v13.6
			h-3.1v-6h-3v6h-3.1V36.7h3.1V41.9z M63,40.9v-0.6c0-2.2,1.5-3.7,4.5-3.7c2.6,0,4,1.1,4.4,2.7c0.1,0.4,0.1,0.7,0.1,6.7
			c0,3.1-1.6,4.5-4.5,4.5c-2.5,0-3.9-0.8-4.4-2.8c-0.1-0.5-0.2-1.1-0.1-2.2h2.8c0,1.2,0,1.6,0.1,1.9c0.2,0.7,0.6,1.1,1.6,1.1
			c1.1,0,1.7-0.8,1.7-2.1V44h-2.4v-2h2.4c0-1.5,0-1.9-0.1-2.2c-0.2-0.7-0.6-1.2-1.6-1.2c-1.3,0-1.7,0.9-1.7,2.3L63,40.9L63,40.9z"/>
	</g>
</g>
</svg>
